name C:/MyDriveSym/Projects/mobilecap/Data\Session20210910_0002\mocap\ForceDataProcessed\walkingTS2_forces.mot
datacolumns 19
datarows 19
range 0.00000000 0.00900000
endheader 
time	R_ground_force_vx	R_ground_force_vy	R_ground_force_vz	R_ground_force_px	R_ground_force_py	R_ground_force_pz	R_ground_torque_x	R_ground_torque_y	R_ground_torque_z	L_ground_force_vx	L_ground_force_vy	L_ground_force_vz	L_ground_force_px	L_ground_force_py	L_ground_force_pz	L_ground_torque_x	L_ground_torque_y	L_ground_torque_z	
          0.00000000	        -51.90450900	        382.28231900	         39.28903100	          0.10130100	          0.00600000	         -0.27435200	          0.00000000	          0.80465600	          0.00000000	          0.00000000	          0.00000000	          0.00000000	          0.65694200	          0.00000000	         -0.43299100	          0.00000000	          0.00000000	          0.00000000	
          0.00050000	        -52.24244100	        383.45782800	         38.98333300	          0.10130100	          0.00600000	         -0.27435200	          0.00000000	          0.78249800	          0.00000000	          0.00000000	          0.00000000	          0.00000000	          0.65694200	          0.00000000	         -0.43299100	          0.00000000	          0.00000000	          0.00000000	
          0.00100000	        -52.58214700	        384.64281900	         38.67542400	          0.10130100	          0.00600000	         -0.27435200	          0.00000000	          0.76032100	          0.00000000	          0.00000000	          0.00000000	          0.00000000	          0.65694200	          0.00000000	         -0.43299100	          0.00000000	          0.00000000	          0.00000000	
          0.00150000	        -52.92360500	        385.83727800	         38.36531400	          0.10130100	          0.00600000	         -0.27435200	          0.00000000	          0.73812800	          0.00000000	          0.00000000	          0.00000000	          0.00000000	          0.65694200	          0.00000000	         -0.43299100	          0.00000000	          0.00000000	          0.00000000	
          0.00200000	        -53.26679200	        387.04118500	         38.05301300	          0.10158300	          0.00600000	         -0.27425700	          0.00000000	          0.71592200	          0.00000000	          0.00000000	          0.00000000	          0.00000000	          0.65694200	          0.00000000	         -0.43299100	          0.00000000	          0.00000000	          0.00000000	
          0.00250000	        -53.61168700	        388.25452000	         37.73853100	          0.10186600	          0.00600000	         -0.27416100	          0.00000000	          0.69370700	          0.00000000	          0.00000000	          0.00000000	          0.00000000	          0.65694200	          0.00000000	         -0.43299100	          0.00000000	          0.00000000	          0.00000000	
          0.00300000	        -53.95826700	        389.47726300	         37.42188000	          0.10215000	          0.00600000	         -0.27406500	          0.00000000	          0.67148600	          0.00000000	          0.00000000	          0.00000000	          0.00000000	          0.65694200	          0.00000000	         -0.43299100	          0.00000000	          0.00000000	          0.00000000	
          0.00350000	        -54.30651000	        390.70939200	         37.10307300	          0.10243600	          0.00600000	         -0.27396900	          0.00000000	          0.64926300	          0.00000000	          0.00000000	          0.00000000	          0.00000000	          0.65694200	          0.00000000	         -0.43299100	          0.00000000	          0.00000000	          0.00000000	
          0.00400000	        -54.65639100	        391.95088300	         36.78212000	          0.10272200	          0.00600000	         -0.27387300	          0.00000000	          0.62704100	          0.00000000	          0.00000000	          0.00000000	          0.00000000	          0.65694200	          0.00000000	         -0.43299100	          0.00000000	          0.00000000	          0.00000000	
          0.00450000	        -55.00788800	        393.20171200	         36.45903600	          0.10301000	          0.00600000	         -0.27377600	          0.00000000	          0.60482300	          0.00000000	          0.00000000	          0.00000000	          0.00000000	          0.65694200	          0.00000000	         -0.43299100	          0.00000000	          0.00000000	          0.00000000	
          0.00500000	        -55.36097600	        394.46185300	         36.13383500	          0.10329800	          0.00600000	         -0.27367900	          0.00000000	          0.58261400	          0.00000000	          0.00000000	          0.00000000	          0.00000000	          0.65694200	          0.00000000	         -0.43299100	          0.00000000	          0.00000000	          0.00000000	
          0.00550000	        -55.71563200	        395.73127900	         35.80653100	          0.10358700	          0.00600000	         -0.27358200	          0.00000000	          0.56041700	          0.00000000	          0.00000000	          0.00000000	          0.00000000	          0.65694200	          0.00000000	         -0.43299100	          0.00000000	          0.00000000	          0.00000000	
          0.00600000	        -56.07183100	        397.00996200	         35.47713800	          0.10387800	          0.00600000	         -0.27348400	          0.00000000	          0.53823400	          0.00000000	          0.00000000	          0.00000000	          0.00000000	          0.65694200	          0.00000000	         -0.43299100	          0.00000000	          0.00000000	          0.00000000	
          0.00650000	        -56.42954800	        398.29787400	         35.14567400	          0.10416900	          0.00600000	         -0.27338600	          0.00000000	          0.51607000	          0.00000000	          0.00000000	          0.00000000	          0.00000000	          0.65694200	          0.00000000	         -0.43299100	          0.00000000	          0.00000000	          0.00000000	
          0.00700000	        -56.78875900	        399.59498500	         34.81215400	          0.10446100	          0.00600000	         -0.27328800	          0.00000000	          0.49392800	          0.00000000	          0.00000000	          0.00000000	          0.00000000	          0.65694200	          0.00000000	         -0.43299100	          0.00000000	          0.00000000	          0.00000000	
          0.00750000	        -57.14943900	        400.90126400	         34.47659500	          0.10475400	          0.00600000	         -0.27319000	          0.00000000	          0.47181200	          0.00000000	          0.00000000	          0.00000000	          0.00000000	          0.65694200	          0.00000000	         -0.43299100	          0.00000000	          0.00000000	          0.00000000	
          0.00800000	        -57.51156300	        402.21667900	         34.13901700	          0.10504800	          0.00600000	         -0.27309100	          0.00000000	          0.44972600	          0.00000000	          0.00000000	          0.00000000	          0.00000000	          0.65694200	          0.00000000	         -0.43299100	          0.00000000	          0.00000000	          0.00000000	
          0.00850000	        -57.87510400	        403.54119800	         33.79943600	          0.10534200	          0.00600000	         -0.27299200	          0.00000000	          0.42767200	          0.00000000	          0.00000000	          0.00000000	          0.00000000	          0.65694200	          0.00000000	         -0.43299100	          0.00000000	          0.00000000	          0.00000000	
          0.00900000	        -58.24003900	        404.87478700	         33.45787300	          0.10563800	          0.00600000	         -0.27289300	          0.00000000	          0.40565400	          0.00000000	          0.00000000	          0.00000000	          0.00000000	          0.65694200	          0.00000000	         -0.43299100	          0.00000000	          0.00000000	          0.00000000	
